<?xml version="1.0" standalone="no"?>
<!DOCTYPE svg PUBLIC "-//W3C//DTD SVG 20010904//EN"
 "http://www.w3.org/TR/2001/REC-SVG-20010904/DTD/svg10.dtd">
<svg version="1.0" xmlns="http://www.w3.org/2000/svg"
 width="1441.000000pt" height="1045.000000pt" viewBox="0 0 1441.000000 1045.000000"
 preserveAspectRatio="xMidYMid meet">

<g transform="translate(0.000000,1045.000000) scale(0.100000,-0.100000)"
fill="#000000" stroke="none">
<path d="M7185 8320 l-1700 -1700 -1015 801 c-558 441 -1045 828 -1082 860
-36 32 -72 59 -80 59 -35 -1 -59 -36 -73 -110 -31 -161 -47 -228 -73 -300 -22
-62 -27 -94 -28 -186 -1 -62 -4 -116 -7 -121 -9 -14 36 -104 70 -144 16 -19
51 -74 78 -124 27 -49 84 -151 128 -225 43 -74 105 -193 137 -263 32 -70 114
-228 182 -350 68 -121 148 -275 178 -342 31 -66 92 -174 136 -240 105 -157
236 -374 232 -385 -8 -21 -139 -114 -203 -144 -71 -34 -165 -107 -165 -130 0
-7 -17 -21 -38 -30 l-39 -18 -62 39 c-34 21 -95 59 -136 85 -41 26 -94 57
-117 69 -22 11 -83 50 -134 84 -51 35 -112 69 -136 75 -24 6 -74 20 -113 30
-196 55 -345 75 -420 56 -32 -8 -40 -41 -24 -97 6 -24 11 -61 10 -82 -1 -38
-60 -177 -114 -271 -15 -27 -51 -110 -79 -185 -28 -75 -72 -183 -98 -241 -26
-58 -62 -145 -80 -195 -36 -97 -121 -262 -175 -338 -18 -26 -40 -68 -48 -95
-8 -26 -29 -78 -46 -117 -53 -121 -121 -303 -121 -325 0 -29 46 -74 67 -65 15
5 15 3 -1 -14 -20 -22 -15 -49 14 -76 24 -22 54 -16 58 13 4 26 40 46 152 86
72 26 280 134 387 202 29 19 79 47 112 63 82 42 278 161 333 203 26 20 80 54
121 77 41 22 105 64 143 92 38 27 106 68 151 90 112 55 139 95 193 289 17 63
49 147 70 185 20 39 45 93 54 120 34 102 66 148 126 177 30 15 82 34 115 43
68 17 204 20 255 5 19 -6 68 -17 109 -25 66 -13 77 -13 98 0 24 16 31 53 13
71 -12 12 151 112 285 175 45 21 92 47 106 57 13 11 51 33 84 50 72 36 155 96
250 181 44 38 108 81 170 113 105 53 170 98 270 183 77 67 266 195 346 235 34
17 134 88 223 156 117 91 191 140 272 180 88 43 130 72 200 135 103 95 255
197 449 304 77 42 159 93 183 114 98 83 171 132 242 163 41 17 92 42 112 55
21 13 42 23 48 23 19 0 78 66 103 115 22 44 143 502 177 670 7 33 32 125 56
204 24 79 44 157 44 173 0 42 27 47 55 12 13 -16 58 -90 101 -164 43 -74 97
-155 121 -180 33 -36 51 -70 81 -155 22 -61 60 -157 84 -215 25 -58 60 -145
78 -195 18 -49 46 -107 63 -129 l30 -39 -43 -35 c-23 -20 -56 -54 -72 -76 -16
-23 -52 -65 -80 -94 -47 -49 -50 -55 -41 -85 11 -39 50 -61 84 -48 14 5 34 5
49 -1 13 -5 67 -16 120 -23 94 -15 412 -115 493 -157 48 -24 44 -30 -65 -86
-104 -55 -141 -59 -332 -34 -309 41 -341 45 -391 49 -27 2 -55 0 -61 -4 -12
-10 -760 -1161 -769 -1186 -6 -14 -21 -17 -89 -17 -50 0 -87 -5 -94 -12 -15
-15 -16 -45 -1 -54 6 -3 72 -13 147 -20 76 -8 175 -25 222 -38 47 -14 123 -32
170 -41 97 -19 337 -83 580 -155 276 -82 429 -119 500 -120 94 -1 263 -47 720
-196 91 -29 331 -95 534 -145 397 -98 442 -112 671 -214 219 -98 309 -131 447
-161 78 -17 196 -56 323 -105 302 -116 445 -166 498 -174 26 -4 47 -10 47 -14
0 -4 -33 -29 -72 -56 -124 -82 -132 -88 -180 -141 -27 -28 -69 -62 -95 -74
-65 -30 -209 -127 -232 -156 l-19 -24 -2543 299 c-1399 164 -2572 302 -2606
305 -71 8 -79 5 -209 -80 -45 -28 -124 -94 -175 -146 -70 -69 -114 -104 -174
-136 -44 -23 -111 -71 -150 -106 -38 -34 -101 -80 -139 -101 -76 -42 -200
-140 -320 -252 -44 -41 -117 -99 -163 -129 -74 -49 -104 -77 -170 -162 -12
-16 -33 -25 -63 -29 -64 -9 -152 -66 -229 -150 -37 -40 -105 -101 -150 -136
-185 -140 -307 -226 -393 -278 -50 -30 -124 -84 -164 -120 -40 -36 -104 -85
-143 -108 -39 -23 -104 -73 -145 -111 -51 -47 -98 -80 -149 -103 -62 -29 -233
-139 -378 -244 -17 -12 -56 -27 -87 -34 -31 -6 -115 -34 -187 -61 -212 -81
-206 -80 -249 -72 -23 3 -52 12 -66 19 -14 7 -44 16 -65 20 -22 4 -51 15 -65
23 -34 23 -304 163 -420 218 -52 25 -162 69 -245 97 -82 27 -172 58 -200 67
-36 12 -51 23 -55 41 -9 33 -38 88 -67 125 -13 18 -43 67 -67 110 -23 44 -59
106 -79 138 -20 33 -35 61 -33 63 4 4 86 -42 147 -83 29 -19 77 -39 120 -49
80 -18 100 -27 187 -84 81 -54 261 -138 336 -157 80 -20 103 -29 220 -86 54
-26 106 -48 114 -48 8 0 49 -16 91 -35 93 -42 162 -51 261 -36 95 15 157 44
245 115 41 34 88 62 113 69 77 21 106 71 59 102 -21 13 -29 14 -64 1 -69 -24
-105 -47 -182 -112 -128 -110 -216 -120 -377 -46 -50 23 -97 42 -104 42 -8 0
-70 26 -139 59 -69 32 -160 66 -201 76 -41 9 -91 26 -110 37 -19 11 -53 27
-75 35 -22 7 -85 43 -141 78 -79 51 -119 70 -184 86 -46 11 -102 33 -124 48
-23 16 -61 38 -86 51 -25 12 -64 38 -87 56 -40 33 -41 35 -27 62 7 15 13 45
13 67 -1 25 21 106 59 220 34 99 68 213 77 253 24 104 30 107 218 107 l149 0
29 33 c32 36 37 63 13 86 -22 22 -57 20 -80 -5 -18 -20 -25 -21 -127 -15 -128
8 -185 -6 -236 -58 -28 -29 -34 -46 -47 -122 -8 -49 -26 -120 -39 -159 -41
-123 -85 -272 -85 -291 0 -10 -11 -34 -25 -55 -32 -46 -36 -105 -10 -145 10
-16 20 -40 21 -54 7 -64 19 -102 59 -185 24 -49 55 -115 69 -145 46 -99 109
-190 146 -210 46 -24 143 -69 200 -90 262 -102 326 -131 455 -205 44 -26 110
-62 146 -80 37 -19 83 -45 103 -59 35 -24 35 -24 11 -30 -13 -3 -70 -11 -126
-17 -57 -5 -106 -12 -110 -15 -15 -9 -277 -34 -359 -34 -166 0 -294 -36 -306
-86 -10 -38 9 -52 64 -47 26 3 52 11 58 19 8 11 41 14 130 14 134 0 309 13
464 34 58 8 150 20 205 26 55 6 163 20 240 30 77 11 205 24 285 30 80 6 242
28 360 50 118 21 244 41 280 45 36 3 88 10 115 15 28 5 109 16 180 25 72 9
184 32 250 51 66 18 176 42 245 53 69 11 181 33 250 49 69 17 188 42 265 56
77 15 203 40 280 56 77 16 203 41 280 55 77 15 214 44 305 66 184 43 349 71
515 88 307 31 481 52 556 70 109 25 153 30 336 40 205 11 236 32 186 127 -56
104 -143 151 -479 253 -109 33 -218 95 -340 193 -110 88 -314 201 -431 239
-57 18 -103 37 -103 41 0 4 5 8 11 8 7 0 47 33 90 74 88 85 440 325 519 355
28 11 66 30 83 44 18 13 70 44 117 68 46 24 107 63 134 88 52 46 131 85 331
166 66 27 127 54 136 62 13 11 367 -29 2144 -237 1170 -138 2136 -248 2146
-245 11 4 19 10 19 15 0 18 70 49 100 44 24 -5 49 6 151 70 108 68 186 125
449 328 130 101 149 128 117 171 -10 14 -33 19 -122 23 -142 6 -263 32 -406
88 -63 24 -196 76 -297 115 -115 45 -226 80 -300 96 -145 31 -219 57 -447 158
-200 88 -362 145 -505 176 -245 53 -570 136 -720 185 -443 145 -580 182 -729
196 -53 5 -144 21 -201 35 -180 44 -300 77 -304 84 -3 4 32 24 77 46 355 169
390 189 617 360 158 119 218 159 320 210 64 32 98 61 235 199 143 144 172 169
270 226 71 42 145 96 210 155 215 196 366 325 495 425 74 57 184 155 244 218
76 77 151 142 242 207 97 69 176 138 291 253 97 97 179 170 213 189 71 41 139
99 151 130 15 40 -8 69 -95 118 -44 26 -117 69 -161 95 -44 26 -95 55 -112 64
-18 9 -56 37 -83 61 -28 25 -86 63 -128 84 -42 21 -131 74 -197 118 -66 43
-160 100 -208 127 -49 26 -126 71 -170 100 -113 74 -270 172 -342 213 -33 19
-81 54 -106 78 -26 25 -91 66 -146 93 -54 27 -152 84 -218 128 -66 44 -160 97
-210 118 -49 21 -131 67 -180 100 -50 34 -167 102 -260 150 -94 49 -186 101
-205 116 -19 15 -63 42 -98 60 -35 18 -67 41 -72 51 -14 25 -40 49 -53 49 -7
0 -777 -765 -1712 -1700z m1775 1510 c30 -18 78 -49 105 -71 50 -38 115 -76
285 -167 47 -25 126 -74 177 -109 50 -35 133 -83 185 -107 51 -24 149 -81 218
-128 69 -47 160 -101 202 -121 42 -19 99 -55 125 -80 26 -25 84 -67 128 -94
149 -93 205 -128 313 -199 60 -40 137 -86 173 -104 35 -18 132 -76 214 -130
83 -54 179 -112 215 -130 36 -18 86 -51 111 -74 25 -22 75 -57 110 -77 68 -39
215 -123 238 -137 11 -6 0 -17 -45 -42 -39 -23 -112 -88 -219 -195 -120 -121
-195 -187 -300 -262 -99 -72 -166 -130 -228 -197 -52 -56 -149 -143 -235 -210
-81 -63 -236 -195 -345 -293 -249 -224 -266 -237 -374 -298 -75 -42 -113 -74
-254 -216 -120 -120 -182 -175 -220 -195 -86 -43 -204 -123 -344 -234 -174
-137 -221 -168 -399 -263 -158 -84 -276 -154 -276 -165 -1 -34 -19 -32 -201
13 -101 26 -240 58 -309 71 -213 40 -300 59 -299 64 0 3 157 246 348 540 331
509 350 535 377 534 42 -2 224 -22 412 -46 236 -29 274 -21 483 102 130 77
152 104 127 157 -15 33 -168 112 -288 149 -254 78 -319 95 -396 100 -46 4 -84
11 -84 16 0 17 43 72 86 111 95 84 108 151 46 226 -21 25 -55 89 -77 141 -21
52 -71 165 -110 250 -40 85 -80 177 -90 204 -10 27 -34 65 -55 85 -20 20 -39
45 -42 56 -9 35 -178 272 -224 315 -34 31 -52 40 -77 40 -17 -1 -45 2 -60 6
-44 10 -74 -25 -83 -95 -4 -31 -24 -112 -45 -181 -21 -69 -45 -161 -53 -205
-8 -44 -29 -140 -46 -213 -17 -74 -40 -177 -50 -230 -11 -53 -30 -132 -42
-174 -19 -70 -24 -78 -50 -83 -16 -4 -35 -2 -42 4 -16 13 -151 26 -431 41
-115 5 -257 15 -315 21 -58 5 -113 7 -122 4 -9 -4 -19 -2 -23 4 -9 16 -41 13
-59 -5 -29 -29 -20 -93 28 -190 24 -49 61 -111 83 -139 21 -27 42 -58 46 -68
8 -21 47 -37 91 -37 44 0 96 -11 96 -20 0 -4 -33 -26 -72 -50 -148 -87 -265
-170 -354 -248 -59 -52 -120 -95 -175 -122 -106 -54 -143 -79 -304 -209 -71
-58 -165 -124 -207 -147 -68 -37 -78 -40 -83 -24 -3 9 -75 72 -160 139 -85 67
-155 125 -155 129 0 4 746 753 1657 1664 1448 1448 1659 1656 1673 1644 8 -8
40 -28 70 -46z m-4390 -2595 c663 -523 1217 -959 1232 -969 l28 -18 -93 -65
c-50 -36 -119 -89 -152 -117 -92 -79 -122 -99 -230 -154 -64 -32 -128 -74
-179 -118 -122 -106 -157 -134 -206 -161 -25 -14 -74 -44 -110 -68 -36 -23
-110 -67 -165 -98 -55 -31 -120 -70 -145 -87 -30 -20 -46 -26 -49 -17 -5 16
-96 212 -122 262 -12 22 -65 128 -119 235 -54 107 -107 203 -118 214 -12 10
-56 83 -99 163 -43 79 -99 181 -125 226 -27 45 -70 127 -98 182 -27 55 -70
127 -95 160 -55 72 -82 121 -125 236 -22 61 -48 106 -84 150 -53 65 -96 137
-201 332 -55 104 -58 113 -63 197 -4 76 -1 97 22 166 30 91 65 246 66 287 0
20 4 26 13 21 6 -5 554 -436 1217 -959z m2330 245 c19 -5 152 -26 295 -45 143
-20 275 -38 294 -41 l34 -6 -59 -33 c-32 -18 -91 -61 -131 -94 -104 -87 -166
-124 -176 -105 -12 21 -56 40 -108 48 -38 6 -54 16 -99 61 -65 66 -153 207
-136 217 15 11 45 10 86 -2z m-4032 -1894 c34 -13 76 -27 94 -31 18 -4 89 -24
158 -46 108 -34 135 -47 199 -96 72 -54 106 -76 307 -197 50 -31 96 -61 102
-69 13 -15 -35 -163 -83 -256 -15 -30 -43 -118 -61 -194 -38 -154 -48 -179
-68 -171 -19 7 -188 -82 -281 -150 -44 -32 -100 -68 -125 -81 -25 -13 -74 -45
-110 -71 -36 -27 -135 -90 -220 -140 -85 -51 -182 -109 -215 -130 -175 -110
-320 -194 -353 -205 -20 -7 -69 -27 -108 -44 l-71 -33 7 27 c23 78 102 285
127 336 11 22 28 63 37 92 10 28 31 69 47 89 40 50 131 234 168 337 16 45 58
152 93 237 36 85 75 187 88 225 12 39 44 115 71 170 88 182 117 306 89 380
-20 52 12 58 108 21z m1485 -191 c54 -109 51 -116 -34 -91 -29 9 -93 16 -143
17 l-91 1 44 20 c24 11 71 48 105 82 33 35 63 63 66 64 3 1 27 -41 53 -93z
m2592 -1140 c171 -20 314 -37 319 -38 4 -2 -41 -24 -100 -51 -132 -59 -167
-79 -219 -126 -22 -20 -76 -56 -120 -80 -44 -24 -98 -55 -120 -70 -22 -14 -61
-34 -86 -43 -25 -10 -72 -37 -105 -61 -32 -24 -120 -86 -195 -139 -86 -61
-164 -126 -215 -180 -89 -94 -115 -112 -141 -99 -50 26 -57 -21 -10 -64 54
-51 92 -73 186 -108 144 -54 267 -131 462 -289 110 -88 199 -133 394 -197 148
-48 275 -104 275 -119 0 -4 -66 -12 -147 -19 -82 -7 -194 -23 -250 -36 -56
-13 -135 -27 -175 -31 -40 -3 -127 -13 -193 -21 -66 -8 -181 -21 -255 -29
-158 -17 -142 -15 -380 -70 -102 -24 -367 -80 -590 -124 -223 -44 -475 -96
-560 -116 -85 -19 -221 -46 -302 -60 -81 -13 -194 -38 -250 -54 -57 -17 -152
-37 -213 -45 -60 -8 -166 -22 -235 -31 -69 -9 -211 -32 -316 -51 -104 -18
-197 -34 -205 -34 -8 0 11 11 41 23 31 13 85 45 122 72 145 107 217 154 303
198 61 30 116 68 169 116 42 38 102 85 133 102 30 18 90 63 132 100 42 37 114
90 161 116 195 109 410 266 554 404 92 88 175 146 189 133 12 -12 73 32 140
102 42 44 103 94 147 121 41 25 108 75 149 112 133 119 254 211 330 251 42 22
110 69 151 106 41 36 100 79 131 94 80 41 145 91 219 170 88 94 278 212 330
205 19 -3 175 -21 345 -40z m-3772 -2392 c-7 -2 -21 -2 -30 0 -10 3 -4 5 12 5
17 0 24 -2 18 -5z"/>
<path d="M5055 4926 c-57 -18 -83 -33 -141 -82 -53 -45 -120 -154 -110 -180
11 -29 45 -15 77 34 56 84 156 146 234 146 41 -1 69 -11 159 -57 60 -31 117
-57 126 -57 35 0 59 46 44 85 -7 17 -79 57 -134 73 -19 6 -61 20 -92 31 -65
24 -105 25 -163 7z"/>
<path d="M3820 4668 c-26 -29 -30 -40 -30 -93 0 -66 4 -76 38 -94 53 -28 102
23 102 108 0 71 -17 105 -53 109 -20 3 -34 -5 -57 -30z"/>
<path d="M5003 4429 c-26 -10 -47 -75 -37 -116 23 -97 114 -77 114 25 0 70
-32 108 -77 91z"/>
<path d="M2829 3111 c-14 -4 -36 -14 -50 -21 -40 -22 -213 -188 -233 -224 -11
-22 -29 -37 -49 -43 -27 -7 -32 -14 -32 -38 0 -27 3 -30 37 -33 50 -4 73 10
109 68 16 26 45 59 63 74 18 14 51 44 72 66 53 57 83 70 153 70 44 0 81 -8
136 -30 92 -37 119 -38 140 -6 21 31 6 63 -33 72 -15 3 -52 15 -82 26 -60 22
-190 33 -231 19z"/>
<path d="M4220 3105 c-6 -8 -64 -49 -128 -91 -193 -128 -215 -143 -277 -194
-33 -26 -98 -68 -145 -93 -100 -52 -240 -143 -240 -157 0 -24 28 -17 113 28
50 27 110 55 132 62 52 16 91 40 197 121 49 36 134 90 190 119 57 29 131 72
164 96 76 53 89 78 58 108 -19 20 -48 20 -64 1z"/>
<path d="M2822 2877 c-13 -14 -22 -36 -21 -53 0 -43 50 -128 76 -132 28 -4 39
17 47 96 6 50 4 69 -9 88 -20 31 -64 32 -93 1z"/>
<path d="M1570 2195 c-7 -9 -10 -29 -7 -47 6 -37 -35 -234 -89 -431 -14 -53
-14 -60 1 -83 16 -25 40 -30 64 -15 7 5 19 39 25 77 7 38 20 107 29 154 39
202 47 265 38 304 -13 52 -38 69 -61 41z"/>
<path d="M8442 1568 c-15 -15 -16 -45 -2 -53 6 -3 10 -21 10 -39 0 -39 15 -56
51 -56 30 0 44 13 52 50 3 14 8 35 12 47 10 32 -26 63 -73 63 -21 0 -43 -5
-50 -12z"/>
<path d="M7649 1556 c-68 -24 -124 -75 -178 -160 -37 -60 -43 -121 -11 -131
28 -9 38 0 50 44 22 84 122 171 195 171 37 0 48 -5 77 -38 19 -21 49 -74 67
-118 18 -43 63 -142 101 -219 37 -77 76 -165 85 -195 10 -30 35 -92 56 -137
l38 -83 -52 -14 c-29 -9 -65 -18 -82 -21 -16 -4 -59 -16 -95 -28 -43 -13 -93
-21 -145 -21 -72 -1 -87 3 -149 34 -97 50 -103 76 -50 226 36 103 75 143 180
189 55 23 96 35 112 32 57 -11 92 32 54 66 -40 36 -68 38 -155 11 -116 -37
-168 -66 -216 -120 -106 -121 -158 -339 -102 -430 21 -33 130 -97 204 -119 56
-17 182 -20 237 -6 19 5 98 25 174 45 125 32 141 34 156 21 37 -33 100 -1 100
50 0 15 -30 83 -66 153 -36 70 -79 162 -95 205 -16 43 -53 120 -83 171 -31 51
-80 145 -110 209 -90 192 -178 256 -297 213z"/>
<path d="M5654 1468 c-39 -31 -48 -42 -94 -123 -44 -77 -50 -119 -22 -134 28
-15 53 8 91 83 41 81 75 115 99 100 48 -30 125 -245 168 -467 8 -42 24 -98 34
-123 23 -53 25 -65 7 -59 -6 3 -50 -11 -97 -31 -92 -40 -145 -45 -247 -23 -76
15 -90 39 -73 121 16 84 56 182 89 217 23 25 36 29 104 35 49 5 85 14 99 25
l21 18 -21 21 c-19 19 -33 22 -104 22 -95 0 -151 -20 -187 -66 -56 -72 -131
-262 -131 -335 0 -127 118 -203 315 -204 80 0 99 4 168 34 42 18 87 41 99 51
21 17 23 17 41 -7 36 -45 92 -49 119 -9 15 21 8 64 -14 91 -34 44 -88 172
-108 255 -45 194 -116 377 -177 457 -54 71 -127 91 -179 51z"/>
<path d="M6071 1368 c-10 -25 6 -65 35 -89 10 -8 33 -48 51 -89 19 -41 54
-100 77 -130 52 -67 64 -88 116 -221 23 -57 55 -121 71 -141 l29 -37 -69 -140
c-39 -76 -95 -177 -125 -224 -70 -106 -115 -202 -109 -227 7 -27 29 -43 58
-43 32 1 49 15 70 61 10 20 42 79 72 130 76 130 218 422 281 577 65 159 83
190 166 290 68 82 119 169 131 222 5 25 2 36 -14 52 -12 12 -28 21 -36 21 -22
0 -57 -39 -51 -56 9 -24 -28 -85 -115 -191 -75 -89 -147 -216 -193 -338 -6
-16 -23 9 -81 125 -40 80 -91 165 -113 190 -22 25 -58 84 -81 131 -50 103 -91
149 -133 149 -21 0 -31 -6 -37 -22z"/>
<path d="M5066 1274 c-9 -8 -16 -16 -16 -17 -1 -1 -7 -33 -14 -72 -22 -110
-153 -475 -180 -503 -14 -13 -48 27 -72 85 -49 118 -88 163 -142 163 -39 0
-80 -40 -131 -127 -28 -49 -69 -109 -91 -134 l-38 -44 -20 45 c-35 78 -74 251
-81 362 -7 109 -18 138 -51 138 -37 0 -43 -25 -37 -148 13 -275 96 -532 172
-532 57 0 151 87 227 210 24 39 46 70 49 70 3 0 20 -34 39 -76 34 -79 66 -112
129 -133 53 -17 87 -13 120 15 37 31 109 177 142 285 12 41 35 107 50 147 53
132 65 228 34 262 -22 24 -67 26 -89 4z"/>
<path d="M2316 1248 c-21 -29 -20 -92 0 -112 19 -19 48 -21 62 -3 16 21 25
107 11 123 -17 21 -56 17 -73 -8z"/>
<path d="M3639 1213 c-40 -20 -96 -59 -125 -87 -48 -48 -55 -59 -92 -176 -49
-153 -55 -202 -43 -354 8 -107 12 -123 38 -159 16 -23 51 -55 78 -72 42 -26
58 -30 119 -30 60 0 82 5 136 32 96 47 249 160 256 189 10 39 -3 70 -35 84
-35 14 -43 11 -156 -70 -145 -105 -215 -124 -271 -77 -25 22 -28 32 -35 128
-8 96 -6 155 8 203 5 18 14 18 177 11 201 -8 226 -2 275 66 26 35 31 51 31 98
0 71 -23 116 -81 158 -24 18 -61 46 -83 63 -54 42 -102 41 -197 -7z m131 -108
c6 -8 32 -26 56 -40 51 -30 63 -61 40 -98 -21 -30 -55 -37 -203 -37 l-112 0
15 44 c18 51 28 62 108 110 66 40 78 43 96 21z"/>
<path d="M8463 1225 c-17 -13 -17 -15 4 -44 13 -16 27 -49 32 -73 13 -59 25
-282 22 -405 -2 -92 0 -104 19 -123 27 -27 67 -23 91 10 18 24 18 30 4 115 -7
50 -21 164 -29 255 -22 230 -29 251 -94 270 -22 6 -36 4 -49 -5z"/>
<path d="M1953 1203 c-12 -11 -28 -54 -42 -108 -33 -136 -133 -509 -137 -514
-8 -9 -36 37 -95 155 -33 67 -69 130 -80 140 -26 23 -82 23 -108 0 -11 -10
-36 -61 -57 -114 -21 -53 -49 -122 -63 -154 l-26 -57 -52 97 c-28 53 -69 144
-91 202 -42 110 -112 261 -133 286 -18 21 -53 13 -57 -12 -2 -12 11 -53 28
-90 18 -38 53 -132 80 -209 41 -123 113 -295 168 -405 20 -40 59 -51 96 -27
23 16 69 105 126 245 31 75 50 102 50 70 0 -7 31 -67 69 -133 38 -66 74 -137
81 -158 14 -45 47 -63 84 -45 43 19 81 113 146 353 34 127 72 269 86 317 31
111 30 131 -2 157 -32 26 -46 26 -71 4z"/>
<path d="M2899 1156 c-2 -2 -74 -10 -159 -16 -174 -14 -200 -20 -200 -50 0
-36 39 -41 243 -34 162 6 189 5 182 -7 -5 -8 -20 -32 -35 -54 -15 -22 -52 -85
-83 -140 -42 -76 -75 -119 -138 -180 -152 -149 -200 -236 -151 -277 29 -26 52
-29 116 -16 33 6 108 12 166 12 198 2 370 18 392 36 27 21 26 66 0 93 -20 20
-24 20 -189 9 -92 -7 -199 -12 -237 -12 l-69 0 70 72 c76 79 116 138 183 267
28 54 66 107 107 149 76 78 82 111 26 141 -20 10 -214 16 -224 7z"/>
<path d="M2266 1027 c-18 -13 -18 -28 -12 -248 10 -316 11 -326 26 -344 17
-20 69 -16 84 7 7 12 7 45 -3 115 -7 54 -15 176 -18 272 -5 151 -9 177 -25
193 -22 22 -28 22 -52 5z"/>
<path d="M6889 691 c-21 -16 -22 -21 -9 -36 8 -10 13 -34 11 -60 -2 -36 2 -46
25 -64 41 -33 89 -28 130 13 58 58 43 109 -38 135 -21 7 -40 17 -43 22 -10 15
-51 10 -76 -10z"/>
</g>
</svg>
